<svg id="visual" viewBox="0 0 675 900" width="675" height="900" xmlns="http://www.w3.org/2000/svg" xmlns:xlink="http://www.w3.org/1999/xlink" version="1.1"><g stroke-width="1" stroke-linejoin="bevel"><path d="M306.8 420L306.8 360L245.5 360Z" fill="#d96a1f" stroke="#d96a1f"></path><path d="M245.5 360L245.5 420L306.8 420Z" fill="#ef8543" stroke="#ef8543"></path><path d="M306.8 360L245.5 300L245.5 360Z" fill="#ef8543" stroke="#ef8543"></path><path d="M245.5 420L245.5 480L306.8 420Z" fill="#f79050" stroke="#f79050"></path><path d="M245.5 480L306.8 480L306.8 420Z" fill="#f79050" stroke="#f79050"></path><path d="M306.8 360L306.8 300L245.5 300Z" fill="#d05f0c" stroke="#d05f0c"></path><path d="M184.1 360L184.1 420L245.5 360Z" fill="#de6f27" stroke="#de6f27"></path><path d="M245.5 360L184.1 420L245.5 420Z" fill="#ea803c" stroke="#ea803c"></path><path d="M245.5 420L184.1 420L245.5 480Z" fill="#ef8543" stroke="#ef8543"></path><path d="M245.5 300L184.1 360L245.5 360Z" fill="#e2752e" stroke="#e2752e"></path><path d="M368.2 420L368.2 360L306.8 420Z" fill="#ea803c" stroke="#ea803c"></path><path d="M306.8 420L368.2 360L306.8 360Z" fill="#ef8543" stroke="#ef8543"></path><path d="M306.8 360L368.2 360L306.8 300Z" fill="#f79050" stroke="#f79050"></path><path d="M306.8 480L368.2 420L306.8 420Z" fill="#d56417" stroke="#d56417"></path><path d="M184.1 420L184.1 480L245.5 480Z" fill="#d05f0c" stroke="#d05f0c"></path><path d="M245.5 300L184.1 300L184.1 360Z" fill="#d56417" stroke="#d56417"></path><path d="M306.8 480L368.2 480L368.2 420Z" fill="#cc5900" stroke="#cc5900"></path><path d="M368.2 360L368.2 300L306.8 300Z" fill="#d56417" stroke="#d56417"></path><path d="M368.2 300L306.8 240L306.8 300Z" fill="#ea803c" stroke="#ea803c"></path><path d="M306.8 300L306.8 240L245.5 300Z" fill="#ef8543" stroke="#ef8543"></path><path d="M245.5 300L245.5 240L184.1 300Z" fill="#d96a1f" stroke="#d96a1f"></path><path d="M306.8 240L245.5 240L245.5 300Z" fill="#e67a35" stroke="#e67a35"></path><path d="M184.1 480L245.5 540L245.5 480Z" fill="#de6f27" stroke="#de6f27"></path><path d="M245.5 480L245.5 540L306.8 480Z" fill="#d96a1f" stroke="#d96a1f"></path><path d="M306.8 480L306.8 540L368.2 480Z" fill="#cc5900" stroke="#cc5900"></path><path d="M245.5 540L306.8 540L306.8 480Z" fill="#de6f27" stroke="#de6f27"></path><path d="M184.1 360L122.7 420L184.1 420Z" fill="#d56417" stroke="#d56417"></path><path d="M184.1 420L122.7 420L184.1 480Z" fill="#ea803c" stroke="#ea803c"></path><path d="M122.7 360L122.7 420L184.1 360Z" fill="#d05f0c" stroke="#d05f0c"></path><path d="M184.1 300L122.7 360L184.1 360Z" fill="#de6f27" stroke="#de6f27"></path><path d="M368.2 480L429.5 420L368.2 420Z" fill="#e2752e" stroke="#e2752e"></path><path d="M368.2 420L429.5 420L368.2 360Z" fill="#e2752e" stroke="#e2752e"></path><path d="M368.2 360L429.5 360L368.2 300Z" fill="#ef8543" stroke="#ef8543"></path><path d="M429.5 420L429.5 360L368.2 360Z" fill="#cc5900" stroke="#cc5900"></path><path d="M245.5 240L184.1 240L184.1 300Z" fill="#d96a1f" stroke="#d96a1f"></path><path d="M184.1 300L122.7 300L122.7 360Z" fill="#f38b49" stroke="#f38b49"></path><path d="M184.1 480L184.1 540L245.5 540Z" fill="#de6f27" stroke="#de6f27"></path><path d="M122.7 480L184.1 540L184.1 480Z" fill="#e67a35" stroke="#e67a35"></path><path d="M306.8 540L368.2 540L368.2 480Z" fill="#d05f0c" stroke="#d05f0c"></path><path d="M368.2 480L429.5 480L429.5 420Z" fill="#de6f27" stroke="#de6f27"></path><path d="M368.2 300L368.2 240L306.8 240Z" fill="#e2752e" stroke="#e2752e"></path><path d="M429.5 300L368.2 240L368.2 300Z" fill="#d96a1f" stroke="#d96a1f"></path><path d="M122.7 420L122.7 480L184.1 480Z" fill="#cc5900" stroke="#cc5900"></path><path d="M184.1 240L122.7 300L184.1 300Z" fill="#e67a35" stroke="#e67a35"></path><path d="M429.5 360L429.5 300L368.2 300Z" fill="#e2752e" stroke="#e2752e"></path><path d="M368.2 540L429.5 480L368.2 480Z" fill="#ea803c" stroke="#ea803c"></path><path d="M184.1 540L245.5 600L245.5 540Z" fill="#ea803c" stroke="#ea803c"></path><path d="M245.5 540L245.5 600L306.8 540Z" fill="#cc5900" stroke="#cc5900"></path><path d="M306.8 540L306.8 600L368.2 540Z" fill="#d96a1f" stroke="#d96a1f"></path><path d="M306.8 180L245.5 180L306.8 240Z" fill="#de6f27" stroke="#de6f27"></path><path d="M306.8 240L245.5 180L245.5 240Z" fill="#ef8543" stroke="#ef8543"></path><path d="M245.5 240L245.5 180L184.1 240Z" fill="#ef8543" stroke="#ef8543"></path><path d="M368.2 240L306.8 180L306.8 240Z" fill="#ef8543" stroke="#ef8543"></path><path d="M245.5 600L306.8 600L306.8 540Z" fill="#f79050" stroke="#f79050"></path><path d="M122.7 480L122.7 540L184.1 540Z" fill="#d96a1f" stroke="#d96a1f"></path><path d="M184.1 540L184.1 600L245.5 600Z" fill="#d96a1f" stroke="#d96a1f"></path><path d="M184.1 240L122.7 240L122.7 300Z" fill="#d56417" stroke="#d56417"></path><path d="M184.1 180L122.7 240L184.1 240Z" fill="#d56417" stroke="#d56417"></path><path d="M429.5 300L429.5 240L368.2 240Z" fill="#de6f27" stroke="#de6f27"></path><path d="M368.2 240L368.2 180L306.8 180Z" fill="#e67a35" stroke="#e67a35"></path><path d="M368.2 540L429.5 540L429.5 480Z" fill="#f38b49" stroke="#f38b49"></path><path d="M368.2 600L429.5 540L368.2 540Z" fill="#d56417" stroke="#d56417"></path><path d="M122.7 300L61.4 360L122.7 360Z" fill="#f79050" stroke="#f79050"></path><path d="M122.7 360L61.4 360L122.7 420Z" fill="#d96a1f" stroke="#d96a1f"></path><path d="M122.7 420L61.4 420L122.7 480Z" fill="#d96a1f" stroke="#d96a1f"></path><path d="M122.7 480L61.4 480L122.7 540Z" fill="#ea803c" stroke="#ea803c"></path><path d="M61.4 300L61.4 360L122.7 300Z" fill="#d05f0c" stroke="#d05f0c"></path><path d="M61.4 360L61.4 420L122.7 420Z" fill="#d96a1f" stroke="#d96a1f"></path><path d="M429.5 420L490.9 360L429.5 360Z" fill="#e2752e" stroke="#e2752e"></path><path d="M429.5 360L490.9 360L429.5 300Z" fill="#f79050" stroke="#f79050"></path><path d="M429.5 300L490.9 300L429.5 240Z" fill="#e67a35" stroke="#e67a35"></path><path d="M490.9 420L490.9 360L429.5 420Z" fill="#e67a35" stroke="#e67a35"></path><path d="M490.9 420L429.5 420L429.5 480Z" fill="#de6f27" stroke="#de6f27"></path><path d="M490.9 480L490.9 420L429.5 480Z" fill="#de6f27" stroke="#de6f27"></path><path d="M122.7 540L184.1 600L184.1 540Z" fill="#cc5900" stroke="#cc5900"></path><path d="M245.5 180L184.1 180L184.1 240Z" fill="#cc5900" stroke="#cc5900"></path><path d="M429.5 240L368.2 180L368.2 240Z" fill="#ef8543" stroke="#ef8543"></path><path d="M306.8 600L368.2 600L368.2 540Z" fill="#f79050" stroke="#f79050"></path><path d="M61.4 420L61.4 480L122.7 480Z" fill="#d56417" stroke="#d56417"></path><path d="M122.7 240L61.4 300L122.7 300Z" fill="#f38b49" stroke="#f38b49"></path><path d="M490.9 360L490.9 300L429.5 300Z" fill="#ef8543" stroke="#ef8543"></path><path d="M429.5 540L490.9 480L429.5 480Z" fill="#ea803c" stroke="#ea803c"></path><path d="M184.1 180L122.7 180L122.7 240Z" fill="#de6f27" stroke="#de6f27"></path><path d="M122.7 240L61.4 240L61.4 300Z" fill="#ea803c" stroke="#ea803c"></path><path d="M122.7 540L122.7 600L184.1 600Z" fill="#de6f27" stroke="#de6f27"></path><path d="M61.4 540L122.7 600L122.7 540Z" fill="#f38b49" stroke="#f38b49"></path><path d="M368.2 600L429.5 600L429.5 540Z" fill="#d05f0c" stroke="#d05f0c"></path><path d="M429.5 540L490.9 540L490.9 480Z" fill="#d05f0c" stroke="#d05f0c"></path><path d="M429.5 240L429.5 180L368.2 180Z" fill="#f79050" stroke="#f79050"></path><path d="M490.9 240L429.5 180L429.5 240Z" fill="#de6f27" stroke="#de6f27"></path><path d="M122.7 180L61.4 240L122.7 240Z" fill="#cc5900" stroke="#cc5900"></path><path d="M61.4 480L61.4 540L122.7 540Z" fill="#ea803c" stroke="#ea803c"></path><path d="M429.5 600L490.9 540L429.5 540Z" fill="#ea803c" stroke="#ea803c"></path><path d="M490.9 300L490.9 240L429.5 240Z" fill="#f79050" stroke="#f79050"></path><path d="M245.5 600L245.5 660L306.8 600Z" fill="#e2752e" stroke="#e2752e"></path><path d="M306.8 600L306.8 660L368.2 600Z" fill="#ea803c" stroke="#ea803c"></path><path d="M368.2 600L368.2 660L429.5 600Z" fill="#f38b49" stroke="#f38b49"></path><path d="M184.1 600L245.5 660L245.5 600Z" fill="#f38b49" stroke="#f38b49"></path><path d="M184.1 660L245.5 660L184.1 600Z" fill="#e2752e" stroke="#e2752e"></path><path d="M245.5 660L306.8 660L306.8 600Z" fill="#ef8543" stroke="#ef8543"></path><path d="M306.8 180L245.5 120L245.5 180Z" fill="#e2752e" stroke="#e2752e"></path><path d="M245.5 180L245.5 120L184.1 180Z" fill="#e2752e" stroke="#e2752e"></path><path d="M184.1 180L184.1 120L122.7 180Z" fill="#e2752e" stroke="#e2752e"></path><path d="M306.8 120L245.5 120L306.8 180Z" fill="#d56417" stroke="#d56417"></path><path d="M306.8 120L306.8 180L368.2 180Z" fill="#f79050" stroke="#f79050"></path><path d="M368.2 120L306.8 120L368.2 180Z" fill="#ef8543" stroke="#ef8543"></path><path d="M490.9 480L552.3 420L490.9 420Z" fill="#de6f27" stroke="#de6f27"></path><path d="M490.9 420L552.3 420L490.9 360Z" fill="#ea803c" stroke="#ea803c"></path><path d="M490.9 360L552.3 360L490.9 300Z" fill="#e2752e" stroke="#e2752e"></path><path d="M490.9 300L552.3 300L490.9 240Z" fill="#ea803c" stroke="#ea803c"></path><path d="M552.3 480L552.3 420L490.9 480Z" fill="#f79050" stroke="#f79050"></path><path d="M61.4 360L0 420L61.4 420Z" fill="#d05f0c" stroke="#d05f0c"></path><path d="M61.4 420L0 420L61.4 480Z" fill="#f38b49" stroke="#f38b49"></path><path d="M61.4 480L0 480L61.4 540Z" fill="#d05f0c" stroke="#d05f0c"></path><path d="M0 360L0 420L61.4 360Z" fill="#ea803c" stroke="#ea803c"></path><path d="M0 360L61.4 360L61.4 300Z" fill="#de6f27" stroke="#de6f27"></path><path d="M0 300L0 360L61.4 300Z" fill="#f79050" stroke="#f79050"></path><path d="M552.3 420L552.3 360L490.9 360Z" fill="#f38b49" stroke="#f38b49"></path><path d="M429.5 180L368.2 120L368.2 180Z" fill="#ef8543" stroke="#ef8543"></path><path d="M122.7 600L184.1 660L184.1 600Z" fill="#ef8543" stroke="#ef8543"></path><path d="M245.5 120L184.1 120L184.1 180Z" fill="#f79050" stroke="#f79050"></path><path d="M306.8 660L368.2 660L368.2 600Z" fill="#d96a1f" stroke="#d96a1f"></path><path d="M490.9 540L552.3 480L490.9 480Z" fill="#d56417" stroke="#d56417"></path><path d="M0 420L0 480L61.4 480Z" fill="#d56417" stroke="#d56417"></path><path d="M552.3 360L552.3 300L490.9 300Z" fill="#de6f27" stroke="#de6f27"></path><path d="M61.4 240L0 300L61.4 300Z" fill="#d05f0c" stroke="#d05f0c"></path><path d="M0 540L61.4 600L61.4 540Z" fill="#cc5900" stroke="#cc5900"></path><path d="M61.4 540L61.4 600L122.7 600Z" fill="#e2752e" stroke="#e2752e"></path><path d="M122.7 600L122.7 660L184.1 660Z" fill="#ea803c" stroke="#ea803c"></path><path d="M122.7 180L61.4 180L61.4 240Z" fill="#ea803c" stroke="#ea803c"></path><path d="M61.4 240L0 240L0 300Z" fill="#e2752e" stroke="#e2752e"></path><path d="M122.7 120L61.4 180L122.7 180Z" fill="#ef8543" stroke="#ef8543"></path><path d="M429.5 600L490.9 600L490.9 540Z" fill="#f79050" stroke="#f79050"></path><path d="M490.9 540L552.3 540L552.3 480Z" fill="#f38b49" stroke="#f38b49"></path><path d="M429.5 660L490.9 600L429.5 600Z" fill="#ef8543" stroke="#ef8543"></path><path d="M552.3 240L490.9 180L490.9 240Z" fill="#d05f0c" stroke="#d05f0c"></path><path d="M490.9 240L490.9 180L429.5 180Z" fill="#e2752e" stroke="#e2752e"></path><path d="M429.5 180L429.5 120L368.2 120Z" fill="#cc5900" stroke="#cc5900"></path><path d="M61.4 600L122.7 660L122.7 600Z" fill="#ef8543" stroke="#ef8543"></path><path d="M184.1 120L122.7 120L122.7 180Z" fill="#f38b49" stroke="#f38b49"></path><path d="M368.2 660L429.5 660L429.5 600Z" fill="#d05f0c" stroke="#d05f0c"></path><path d="M490.9 180L429.5 120L429.5 180Z" fill="#e67a35" stroke="#e67a35"></path><path d="M61.4 180L0 240L61.4 240Z" fill="#d56417" stroke="#d56417"></path><path d="M552.3 300L552.3 240L490.9 240Z" fill="#ea803c" stroke="#ea803c"></path><path d="M0 480L0 540L61.4 540Z" fill="#ea803c" stroke="#ea803c"></path><path d="M490.9 600L552.3 540L490.9 540Z" fill="#ef8543" stroke="#ef8543"></path><path d="M306.8 120L245.5 60L245.5 120Z" fill="#ea803c" stroke="#ea803c"></path><path d="M245.5 120L245.5 60L184.1 120Z" fill="#d05f0c" stroke="#d05f0c"></path><path d="M184.1 120L184.1 60L122.7 120Z" fill="#f79050" stroke="#f79050"></path><path d="M306.8 60L245.5 60L306.8 120Z" fill="#e67a35" stroke="#e67a35"></path><path d="M306.8 60L306.8 120L368.2 120Z" fill="#ef8543" stroke="#ef8543"></path><path d="M368.2 60L306.8 60L368.2 120Z" fill="#f38b49" stroke="#f38b49"></path><path d="M245.5 660L245.5 720L306.8 660Z" fill="#d56417" stroke="#d56417"></path><path d="M306.8 660L306.8 720L368.2 660Z" fill="#d05f0c" stroke="#d05f0c"></path><path d="M368.2 660L368.2 720L429.5 660Z" fill="#f38b49" stroke="#f38b49"></path><path d="M184.1 660L245.5 720L245.5 660Z" fill="#e2752e" stroke="#e2752e"></path><path d="M184.1 720L245.5 720L184.1 660Z" fill="#d56417" stroke="#d56417"></path><path d="M245.5 720L306.8 720L306.8 660Z" fill="#ea803c" stroke="#ea803c"></path><path d="M552.3 360L613.6 360L552.3 300Z" fill="#f79050" stroke="#f79050"></path><path d="M552.3 300L613.6 300L552.3 240Z" fill="#d56417" stroke="#d56417"></path><path d="M552.3 420L613.6 360L552.3 360Z" fill="#e2752e" stroke="#e2752e"></path><path d="M613.6 420L613.6 360L552.3 420Z" fill="#de6f27" stroke="#de6f27"></path><path d="M613.6 420L552.3 420L552.3 480Z" fill="#d05f0c" stroke="#d05f0c"></path><path d="M613.6 480L613.6 420L552.3 480Z" fill="#f38b49" stroke="#f38b49"></path><path d="M245.5 60L184.1 60L184.1 120Z" fill="#d96a1f" stroke="#d96a1f"></path><path d="M122.7 660L184.1 720L184.1 660Z" fill="#f38b49" stroke="#f38b49"></path><path d="M306.8 720L368.2 720L368.2 660Z" fill="#f38b49" stroke="#f38b49"></path><path d="M429.5 120L368.2 60L368.2 120Z" fill="#e2752e" stroke="#e2752e"></path><path d="M122.7 120L61.4 120L61.4 180Z" fill="#e67a35" stroke="#e67a35"></path><path d="M61.4 180L0 180L0 240Z" fill="#f79050" stroke="#f79050"></path><path d="M122.7 60L61.4 120L122.7 120Z" fill="#ea803c" stroke="#ea803c"></path><path d="M0 600L61.4 660L61.4 600Z" fill="#de6f27" stroke="#de6f27"></path><path d="M61.4 600L61.4 660L122.7 660Z" fill="#d96a1f" stroke="#d96a1f"></path><path d="M122.7 660L122.7 720L184.1 720Z" fill="#d05f0c" stroke="#d05f0c"></path><path d="M552.3 180L490.9 180L552.3 240Z" fill="#e67a35" stroke="#e67a35"></path><path d="M552.3 180L490.9 120L490.9 180Z" fill="#de6f27" stroke="#de6f27"></path><path d="M490.9 180L490.9 120L429.5 120Z" fill="#e2752e" stroke="#e2752e"></path><path d="M429.5 120L429.5 60L368.2 60Z" fill="#ef8543" stroke="#ef8543"></path><path d="M490.9 600L552.3 600L552.3 540Z" fill="#d56417" stroke="#d56417"></path><path d="M552.3 540L613.6 480L552.3 480Z" fill="#d56417" stroke="#d56417"></path><path d="M429.5 660L490.9 660L490.9 600Z" fill="#ea803c" stroke="#ea803c"></path><path d="M429.5 720L490.9 660L429.5 660Z" fill="#d96a1f" stroke="#d96a1f"></path><path d="M613.6 240L552.3 180L552.3 240Z" fill="#d96a1f" stroke="#d96a1f"></path><path d="M0 540L0 600L61.4 600Z" fill="#ea803c" stroke="#ea803c"></path><path d="M61.4 120L0 180L61.4 180Z" fill="#ef8543" stroke="#ef8543"></path><path d="M490.9 660L552.3 600L490.9 600Z" fill="#ef8543" stroke="#ef8543"></path><path d="M613.6 540L613.6 480L552.3 540Z" fill="#cc5900" stroke="#cc5900"></path><path d="M613.6 360L613.6 300L552.3 300Z" fill="#f38b49" stroke="#f38b49"></path><path d="M184.1 60L122.7 60L122.7 120Z" fill="#d56417" stroke="#d56417"></path><path d="M61.4 660L122.7 720L122.7 660Z" fill="#ef8543" stroke="#ef8543"></path><path d="M490.9 120L429.5 60L429.5 120Z" fill="#e67a35" stroke="#e67a35"></path><path d="M368.2 720L429.5 720L429.5 660Z" fill="#d05f0c" stroke="#d05f0c"></path><path d="M552.3 180L552.3 120L490.9 120Z" fill="#f79050" stroke="#f79050"></path><path d="M613.6 300L613.6 240L552.3 240Z" fill="#e67a35" stroke="#e67a35"></path><path d="M613.6 600L613.6 540L552.3 600Z" fill="#d05f0c" stroke="#d05f0c"></path><path d="M552.3 600L613.6 540L552.3 540Z" fill="#ef8543" stroke="#ef8543"></path><path d="M490.9 720L552.3 660L490.9 660Z" fill="#f79050" stroke="#f79050"></path><path d="M490.9 660L552.3 660L552.3 600Z" fill="#d96a1f" stroke="#d96a1f"></path><path d="M0 600L0 660L61.4 660Z" fill="#e2752e" stroke="#e2752e"></path><path d="M61.4 660L61.4 720L122.7 720Z" fill="#d05f0c" stroke="#d05f0c"></path><path d="M61.4 60L0 120L61.4 120Z" fill="#ef8543" stroke="#ef8543"></path><path d="M61.4 120L0 120L0 180Z" fill="#d56417" stroke="#d56417"></path><path d="M613.6 180L552.3 120L552.3 180Z" fill="#cc5900" stroke="#cc5900"></path><path d="M490.9 120L490.9 60L429.5 60Z" fill="#de6f27" stroke="#de6f27"></path><path d="M306.8 60L245.5 0L245.5 60Z" fill="#d96a1f" stroke="#d96a1f"></path><path d="M245.5 60L245.5 0L184.1 60Z" fill="#d56417" stroke="#d56417"></path><path d="M184.1 60L184.1 0L122.7 60Z" fill="#e67a35" stroke="#e67a35"></path><path d="M306.8 0L245.5 0L306.8 60Z" fill="#f79050" stroke="#f79050"></path><path d="M306.8 0L306.8 60L368.2 60Z" fill="#d56417" stroke="#d56417"></path><path d="M245.5 720L245.5 780L306.8 720Z" fill="#f79050" stroke="#f79050"></path><path d="M306.8 720L306.8 780L368.2 720Z" fill="#cc5900" stroke="#cc5900"></path><path d="M368.2 720L368.2 780L429.5 720Z" fill="#d96a1f" stroke="#d96a1f"></path><path d="M184.1 720L245.5 780L245.5 720Z" fill="#e2752e" stroke="#e2752e"></path><path d="M184.1 780L245.5 780L184.1 720Z" fill="#ea803c" stroke="#ea803c"></path><path d="M368.2 0L306.8 0L368.2 60Z" fill="#e2752e" stroke="#e2752e"></path><path d="M245.5 780L306.8 780L306.8 720Z" fill="#d56417" stroke="#d56417"></path><path d="M122.7 0L61.4 60L122.7 60Z" fill="#f38b49" stroke="#f38b49"></path><path d="M122.7 60L61.4 60L61.4 120Z" fill="#d56417" stroke="#d56417"></path><path d="M0 660L61.4 720L61.4 660Z" fill="#f79050" stroke="#f79050"></path><path d="M122.7 720L184.1 780L184.1 720Z" fill="#d05f0c" stroke="#d05f0c"></path><path d="M429.5 780L490.9 720L429.5 720Z" fill="#ea803c" stroke="#ea803c"></path><path d="M429.5 720L490.9 720L490.9 660Z" fill="#e67a35" stroke="#e67a35"></path><path d="M552.3 120L490.9 60L490.9 120Z" fill="#d56417" stroke="#d56417"></path><path d="M429.5 60L368.2 0L368.2 60Z" fill="#e67a35" stroke="#e67a35"></path><path d="M613.6 660L613.6 600L552.3 660Z" fill="#e67a35" stroke="#e67a35"></path><path d="M552.3 660L613.6 600L552.3 600Z" fill="#f38b49" stroke="#f38b49"></path><path d="M613.6 240L613.6 180L552.3 180Z" fill="#ea803c" stroke="#ea803c"></path><path d="M552.3 120L552.3 60L490.9 60Z" fill="#d96a1f" stroke="#d96a1f"></path><path d="M675 480L675 420L613.6 480Z" fill="#d05f0c" stroke="#d05f0c"></path><path d="M613.6 480L675 420L613.6 420Z" fill="#f38b49" stroke="#f38b49"></path><path d="M613.6 420L675 420L613.6 360Z" fill="#ef8543" stroke="#ef8543"></path><path d="M613.6 360L675 360L613.6 300Z" fill="#cc5900" stroke="#cc5900"></path><path d="M613.6 300L675 300L613.6 240Z" fill="#e2752e" stroke="#e2752e"></path><path d="M613.6 240L675 240L613.6 180Z" fill="#cc5900" stroke="#cc5900"></path><path d="M675 480L613.6 480L613.6 540Z" fill="#cc5900" stroke="#cc5900"></path><path d="M675 420L675 360L613.6 360Z" fill="#de6f27" stroke="#de6f27"></path><path d="M245.5 0L184.1 0L184.1 60Z" fill="#f79050" stroke="#f79050"></path><path d="M122.7 780L184.1 780L122.7 720Z" fill="#cc5900" stroke="#cc5900"></path><path d="M306.8 780L368.2 780L368.2 720Z" fill="#cc5900" stroke="#cc5900"></path><path d="M429.5 0L368.2 0L429.5 60Z" fill="#d05f0c" stroke="#d05f0c"></path><path d="M675 540L675 480L613.6 540Z" fill="#f38b49" stroke="#f38b49"></path><path d="M675 360L675 300L613.6 300Z" fill="#f38b49" stroke="#f38b49"></path><path d="M184.1 0L122.7 0L122.7 60Z" fill="#ef8543" stroke="#ef8543"></path><path d="M61.4 720L122.7 780L122.7 720Z" fill="#e67a35" stroke="#e67a35"></path><path d="M368.2 780L429.5 780L429.5 720Z" fill="#d56417" stroke="#d56417"></path><path d="M490.9 60L429.5 0L429.5 60Z" fill="#ea803c" stroke="#ea803c"></path><path d="M613.6 600L675 540L613.6 540Z" fill="#e2752e" stroke="#e2752e"></path><path d="M675 300L675 240L613.6 240Z" fill="#f79050" stroke="#f79050"></path><path d="M613.6 120L552.3 120L613.6 180Z" fill="#ea803c" stroke="#ea803c"></path><path d="M613.6 120L552.3 60L552.3 120Z" fill="#f38b49" stroke="#f38b49"></path><path d="M490.9 60L490.9 0L429.5 0Z" fill="#e2752e" stroke="#e2752e"></path><path d="M0 660L0 720L61.4 720Z" fill="#cc5900" stroke="#cc5900"></path><path d="M61.4 720L61.4 780L122.7 780Z" fill="#ea803c" stroke="#ea803c"></path><path d="M490.9 720L552.3 720L552.3 660Z" fill="#ef8543" stroke="#ef8543"></path><path d="M613.6 600L675 600L675 540Z" fill="#e67a35" stroke="#e67a35"></path><path d="M490.9 780L552.3 720L490.9 720Z" fill="#d96a1f" stroke="#d96a1f"></path><path d="M61.4 60L0 60L0 120Z" fill="#d96a1f" stroke="#d96a1f"></path><path d="M61.4 0L0 60L61.4 60Z" fill="#e67a35" stroke="#e67a35"></path><path d="M552.3 720L613.6 660L552.3 660Z" fill="#e2752e" stroke="#e2752e"></path><path d="M675 180L613.6 120L613.6 180Z" fill="#cc5900" stroke="#cc5900"></path><path d="M0 720L61.4 780L61.4 720Z" fill="#e67a35" stroke="#e67a35"></path><path d="M122.7 0L61.4 0L61.4 60Z" fill="#d05f0c" stroke="#d05f0c"></path><path d="M552.3 0L490.9 0L552.3 60Z" fill="#e67a35" stroke="#e67a35"></path><path d="M552.3 60L490.9 0L490.9 60Z" fill="#d96a1f" stroke="#d96a1f"></path><path d="M429.5 780L490.9 780L490.9 720Z" fill="#d96a1f" stroke="#d96a1f"></path><path d="M552.3 720L613.6 720L613.6 660Z" fill="#e2752e" stroke="#e2752e"></path><path d="M675 240L675 180L613.6 180Z" fill="#d96a1f" stroke="#d96a1f"></path><path d="M613.6 660L675 600L613.6 600Z" fill="#d96a1f" stroke="#d96a1f"></path><path d="M245.5 780L245.5 840L306.8 780Z" fill="#d56417" stroke="#d56417"></path><path d="M306.8 780L306.8 840L368.2 780Z" fill="#ea803c" stroke="#ea803c"></path><path d="M368.2 780L368.2 840L429.5 780Z" fill="#cc5900" stroke="#cc5900"></path><path d="M429.5 780L429.5 840L490.9 780Z" fill="#cc5900" stroke="#cc5900"></path><path d="M184.1 780L245.5 840L245.5 780Z" fill="#e2752e" stroke="#e2752e"></path><path d="M184.1 840L245.5 840L184.1 780Z" fill="#f79050" stroke="#f79050"></path><path d="M184.1 840L184.1 780L122.7 780Z" fill="#f38b49" stroke="#f38b49"></path><path d="M245.5 840L306.8 840L306.8 780Z" fill="#d56417" stroke="#d56417"></path><path d="M122.7 840L184.1 840L122.7 780Z" fill="#ef8543" stroke="#ef8543"></path><path d="M306.8 840L368.2 840L368.2 780Z" fill="#e67a35" stroke="#e67a35"></path><path d="M552.3 780L613.6 720L552.3 720Z" fill="#e2752e" stroke="#e2752e"></path><path d="M613.6 660L675 660L675 600Z" fill="#de6f27" stroke="#de6f27"></path><path d="M675 120L613.6 60L613.6 120Z" fill="#e2752e" stroke="#e2752e"></path><path d="M613.6 120L613.6 60L552.3 60Z" fill="#f38b49" stroke="#f38b49"></path><path d="M61.4 780L122.7 840L122.7 780Z" fill="#e2752e" stroke="#e2752e"></path><path d="M368.2 840L429.5 840L429.5 780Z" fill="#d05f0c" stroke="#d05f0c"></path><path d="M490.9 780L552.3 780L552.3 720Z" fill="#d56417" stroke="#d56417"></path><path d="M490.9 840L552.3 780L490.9 780Z" fill="#ea803c" stroke="#ea803c"></path><path d="M61.4 0L0 0L0 60Z" fill="#f79050" stroke="#f79050"></path><path d="M0 720L0 780L61.4 780Z" fill="#d96a1f" stroke="#d96a1f"></path><path d="M61.4 780L61.4 840L122.7 840Z" fill="#f79050" stroke="#f79050"></path><path d="M613.6 60L552.3 0L552.3 60Z" fill="#cc5900" stroke="#cc5900"></path><path d="M613.6 720L675 660L613.6 660Z" fill="#de6f27" stroke="#de6f27"></path><path d="M675 180L675 120L613.6 120Z" fill="#f79050" stroke="#f79050"></path><path d="M0 780L61.4 840L61.4 780Z" fill="#ea803c" stroke="#ea803c"></path><path d="M429.5 840L490.9 840L490.9 780Z" fill="#d96a1f" stroke="#d96a1f"></path><path d="M552.3 780L613.6 780L613.6 720Z" fill="#e67a35" stroke="#e67a35"></path><path d="M245.5 840L245.5 900L306.8 840Z" fill="#d56417" stroke="#d56417"></path><path d="M306.8 840L306.8 900L368.2 840Z" fill="#f38b49" stroke="#f38b49"></path><path d="M368.2 840L368.2 900L429.5 840Z" fill="#d56417" stroke="#d56417"></path><path d="M429.5 840L429.5 900L490.9 840Z" fill="#f38b49" stroke="#f38b49"></path><path d="M184.1 840L245.5 900L245.5 840Z" fill="#d96a1f" stroke="#d96a1f"></path><path d="M184.1 900L245.5 900L184.1 840Z" fill="#cc5900" stroke="#cc5900"></path><path d="M184.1 900L184.1 840L122.7 840Z" fill="#ea803c" stroke="#ea803c"></path><path d="M245.5 900L306.8 900L306.8 840Z" fill="#cc5900" stroke="#cc5900"></path><path d="M552.3 840L613.6 780L552.3 780Z" fill="#f38b49" stroke="#f38b49"></path><path d="M613.6 720L675 720L675 660Z" fill="#cc5900" stroke="#cc5900"></path><path d="M675 60L613.6 0L613.6 60Z" fill="#de6f27" stroke="#de6f27"></path><path d="M613.6 60L613.6 0L552.3 0Z" fill="#d05f0c" stroke="#d05f0c"></path><path d="M675 120L675 60L613.6 60Z" fill="#d05f0c" stroke="#d05f0c"></path><path d="M613.6 780L675 720L613.6 720Z" fill="#d96a1f" stroke="#d96a1f"></path><path d="M122.7 900L184.1 900L122.7 840Z" fill="#d96a1f" stroke="#d96a1f"></path><path d="M306.8 900L368.2 900L368.2 840Z" fill="#e67a35" stroke="#e67a35"></path><path d="M490.9 900L552.3 840L490.9 840Z" fill="#ef8543" stroke="#ef8543"></path><path d="M490.9 840L552.3 840L552.3 780Z" fill="#d96a1f" stroke="#d96a1f"></path><path d="M0 780L0 840L61.4 840Z" fill="#d05f0c" stroke="#d05f0c"></path><path d="M61.4 840L122.7 900L122.7 840Z" fill="#ef8543" stroke="#ef8543"></path><path d="M61.4 900L122.7 900L61.4 840Z" fill="#e2752e" stroke="#e2752e"></path><path d="M368.2 900L429.5 900L429.5 840Z" fill="#f38b49" stroke="#f38b49"></path><path d="M0 840L61.4 900L61.4 840Z" fill="#ef8543" stroke="#ef8543"></path><path d="M429.5 900L490.9 900L490.9 840Z" fill="#ef8543" stroke="#ef8543"></path><path d="M613.6 840L675 780L613.6 780Z" fill="#d96a1f" stroke="#d96a1f"></path><path d="M675 60L675 0L613.6 0Z" fill="#d56417" stroke="#d56417"></path><path d="M613.6 840L613.6 780L552.3 840Z" fill="#ea803c" stroke="#ea803c"></path><path d="M613.6 780L675 780L675 720Z" fill="#ea803c" stroke="#ea803c"></path><path d="M552.3 900L613.6 840L552.3 840Z" fill="#d96a1f" stroke="#d96a1f"></path><path d="M0 840L0 900L61.4 900Z" fill="#d56417" stroke="#d56417"></path><path d="M490.9 900L552.3 900L552.3 840Z" fill="#d05f0c" stroke="#d05f0c"></path><path d="M613.6 840L675 840L675 780Z" fill="#d56417" stroke="#d56417"></path><path d="M613.6 900L675 840L613.6 840Z" fill="#e67a35" stroke="#e67a35"></path><path d="M552.3 900L613.6 900L613.6 840Z" fill="#f79050" stroke="#f79050"></path><path d="M613.6 900L675 900L675 840Z" fill="#de6f27" stroke="#de6f27"></path></g></svg>