<?xml version="1.0" encoding="UTF-8"?>
<svg xmlns="http://www.w3.org/2000/svg" viewBox="0 0 560.97 453.25">
  <defs>
    <style>
      .cls-1 {
        fill: #f79050;
        stroke-width: 0px;
      }
    </style>
  </defs>
  <g id="Layer_3" data-name="Layer 3">
    <g>
      <path class="cls-1" d="M102.15,349s53.73-65.28,159.01-70.05v71.44l-159.01-1.39Z"/>
      <path class="cls-1" d="M451.22,349.2s-57.31-71.44-161-70.25v71.44l161-1.19Z"/>
      <path class="cls-1" d="M459.97,314.67s-66.85-66.66-169.76-66.26v-46.48h127.47s42.29,112.74,42.29,112.74Z"/>
      <path class="cls-1" d="M91.41,314.67s66.85-66.66,169.76-66.26v-46.48h-127.47s-42.29,112.74-42.29,112.74Z"/>
      <path class="cls-1" d="M176.29,93.67s34.13,25.08,84.88,23.48v56.52h-114.83l29.95-80Z"/>
      <path class="cls-1" d="M375.1,93.67s-34.13,25.08-84.88,23.48v56.52s114.83,0,114.83,0l-29.95-80Z"/>
      <path class="cls-1" d="M261.16,0v89.09s-54.53-3.98-72.84-21.49c0,0,14.93-67.6,30.45-67.6h42.39Z"/>
      <path class="cls-1" d="M290.82,0v89.09s54.53-3.98,72.84-21.49C363.65,67.6,348.73,0,333.2,0c-15.52,0-42.39,0-42.39,0Z"/>
    </g>
  </g>
  <g id="Layer_4" data-name="Layer 4">
    <path class="cls-1" d="M16.12,427.15v25.1H0v-67.57h26.68c5.95,0,10.5.64,13.66,1.91,3.16,1.27,5.98,3.54,8.45,6.81,2.48,3.27,3.72,7.28,3.72,12.03,0,3.33-.66,6.58-1.98,9.75-1.32,3.17-3.19,5.66-5.6,7.48-2.41,1.82-4.75,3.02-7.02,3.61-2.26.59-5.81.89-10.64.89h-11.16ZM15.57,414.87h10.31c3.93,0,6.69-.91,8.28-2.72,1.59-1.81,2.38-3.89,2.38-6.24,0-2.74-.89-4.92-2.65-6.53-1.77-1.62-4.46-2.43-8.06-2.43h-10.26v17.92Z"/>
    <path class="cls-1" d="M100.1,438.88h27.53v13.37h-43.96v-67.57h16.43v54.21Z"/>
    <path class="cls-1" d="M203.2,385.68l21.19,67.57h-17.04l-4.17-13.91h-21.88l-4.24,13.91h-13.9l21.7-67.57h18.36ZM185.09,426.87h14.34l-7.11-23.71-7.23,23.71Z"/>
    <path class="cls-1" d="M307.26,385.58l-21.27,39.11v28.47h-15.82v-28.47l-21.27-39.11h18.4l12.9,25.59,12.85-25.59h14.22Z"/>
    <path class="cls-1" d="M359.29,428.03v24.72h-15.88v-66.56h26.28c5.86,0,10.35.63,13.46,1.88,3.11,1.25,5.89,3.49,8.33,6.71,2.44,3.22,3.66,7.17,3.66,11.85,0,3.28-.65,6.49-1.95,9.61-1.3,3.12-3.14,5.58-5.52,7.36-2.38,1.79-4.68,2.97-6.91,3.56s-5.72.88-10.48.88h-10.99ZM358.75,415.93h10.16c3.87,0,6.59-.89,8.16-2.68,1.56-1.79,2.34-3.84,2.34-6.14,0-2.7-.87-4.84-2.61-6.44-1.74-1.59-4.39-2.39-7.94-2.39h-10.11v17.65Z"/>
    <path class="cls-1" d="M457.94,384.67l21.19,67.57h-17.04l-4.17-13.91h-21.88l-4.24,13.91h-13.9l21.7-67.57h18.36ZM439.83,425.86h14.34l-7.11-23.71-7.23,23.71Z"/>
    <path class="cls-1" d="M533.64,439.69h27.33v13.57h-43.64v-68.58h16.31v55.02Z"/>
  </g>
</svg>