<?xml version="1.0" encoding="UTF-8"?>
<svg xmlns="http://www.w3.org/2000/svg" viewBox="0 0 549.44 205.35">
  <defs>
    <style>
      .cls-1 {
        fill: #f79050;
        stroke-width: 0px;
      }
    </style>
  </defs>
  <g id="Layer_3" data-name="Layer 3">
    <g>
      <path class="cls-1" d="M6.3,204.53s31.49-38.25,93.19-41.05v41.87l-93.19-.82Z"/>
      <path class="cls-1" d="M210.87,204.65s-33.59-41.87-94.35-41.17v41.87l94.35-.7Z"/>
      <path class="cls-1" d="M216,184.41s-39.18-39.06-99.49-38.83v-27.24h74.7s24.78,66.07,24.78,66.07Z"/>
      <path class="cls-1" d="M0,184.41s39.18-39.06,99.49-38.83v-27.24H24.78S0,184.41,0,184.41Z"/>
      <path class="cls-1" d="M49.74,54.89s20,14.7,49.74,13.76v33.12H32.19l17.55-46.89Z"/>
      <path class="cls-1" d="M166.26,54.89s-20,14.7-49.74,13.76v33.12s67.3,0,67.3,0l-17.55-46.89Z"/>
      <path class="cls-1" d="M99.49,0v52.21s-31.96-2.33-42.69-12.6c0,0,8.75-39.62,17.84-39.62h24.84Z"/>
      <path class="cls-1" d="M116.86,0v52.21s31.96-2.33,42.69-12.6C159.55,39.62,150.8,0,141.71,0h-24.84Z"/>
    </g>
  </g>
  <g id="Layer_4" data-name="Layer 4">
    <path class="cls-1" d="M229.65,101.72v14.73h-9.46v-39.66h15.66c3.49,0,6.17.37,8.02,1.12,1.85.75,3.51,2.08,4.96,4,1.46,1.92,2.18,4.27,2.18,7.06,0,1.96-.39,3.86-1.16,5.72-.78,1.86-1.87,3.32-3.29,4.39-1.42,1.07-2.79,1.77-4.12,2.12-1.33.35-3.41.52-6.24.52h-6.55ZM229.33,94.51h6.05c2.31,0,3.93-.53,4.86-1.6.93-1.07,1.4-2.29,1.4-3.66,0-1.61-.52-2.89-1.56-3.84-1.04-.95-2.62-1.42-4.73-1.42h-6.02v10.52Z"/>
    <path class="cls-1" d="M278.94,108.6h16.16v7.84h-25.8v-39.66h9.64v31.82Z"/>
    <path class="cls-1" d="M339.45,77.38l12.44,39.66h-10l-2.45-8.16h-12.84l-2.49,8.16h-8.16l12.73-39.66h10.77ZM328.83,101.55h8.42l-4.17-13.92-4.25,13.92Z"/>
    <path class="cls-1" d="M400.53,77.32l-12.49,22.95v16.71h-9.28v-16.71l-12.49-22.95h10.8l7.57,15.02,7.54-15.02h8.35Z"/>
    <path class="cls-1" d="M431.07,102.23v14.51h-9.32v-39.07h15.42c3.44,0,6.07.37,7.9,1.1,1.83.73,3.45,2.05,4.89,3.94,1.43,1.89,2.15,4.21,2.15,6.95,0,1.93-.38,3.81-1.15,5.64-.76,1.83-1.84,3.27-3.24,4.32-1.4,1.05-2.75,1.75-4.06,2.09s-3.36.51-6.15.51h-6.45ZM430.75,95.13h5.96c2.27,0,3.87-.52,4.79-1.57.92-1.05,1.38-2.25,1.38-3.61,0-1.58-.51-2.84-1.53-3.78-1.02-.93-2.58-1.4-4.66-1.4h-5.93v10.36Z"/>
    <path class="cls-1" d="M488.96,76.79l12.44,39.66h-10l-2.45-8.16h-12.84l-2.49,8.16h-8.16l12.73-39.66h10.77ZM478.34,100.96h8.42l-4.17-13.92-4.25,13.92Z"/>
    <path class="cls-1" d="M533.4,109.08h16.04v7.96h-25.61v-40.25h9.57v32.29Z"/>
  </g>
</svg>