<?xml version="1.0" encoding="UTF-8"?>
<svg id="Layer_3" data-name="Layer 3" xmlns="http://www.w3.org/2000/svg" viewBox="0 0 500 350">
  <defs>
    <style>
      .cls-1 {
        fill: #f79050;
        stroke-width: 0px;
      }
    </style>
  </defs>
  <path class="cls-1" d="M102.15,349s53.73-65.28,159.01-70.05v71.44l-159.01-1.39Z"/>
  <path class="cls-1" d="M451.22,349.2s-57.31-71.44-161-70.25v71.44l161-1.19Z"/>
  <path class="cls-1" d="M459.97,314.67s-66.85-66.66-169.76-66.26v-46.48h127.47s42.29,112.74,42.29,112.74Z"/>
  <path class="cls-1" d="M91.41,314.67s66.85-66.66,169.76-66.26v-46.48h-127.47s-42.29,112.74-42.29,112.74Z"/>
  <path class="cls-1" d="M176.29,93.67s34.13,25.08,84.88,23.48v56.52h-114.83l29.95-80Z"/>
  <path class="cls-1" d="M375.1,93.67s-34.13,25.08-84.88,23.48v56.52s114.83,0,114.83,0l-29.95-80Z"/>
  <path class="cls-1" d="M261.16,0v89.09s-54.53-3.98-72.84-21.49c0,0,14.93-67.6,30.45-67.6h42.39Z"/>
  <path class="cls-1" d="M290.82,0v89.09s54.53-3.98,72.84-21.49C363.65,67.6,348.73,0,333.2,0c-15.52,0-42.39,0-42.39,0Z"/>
</svg>